<svg xmlns="http://www.w3.org/2000/svg" width="800" height="800" viewBox="0 0 64 64"><g fill="none" fill-rule="evenodd"><circle cx="32" cy="32" r="30" fill="#B4DFFB"/><path fill="#0A3586" d="M35.282 22.44A12.266 12.266 0 0 0 32 22c-1.277 0-2.498.192-3.621.54-.582-1.22-2.172-4.309-3.908-5.54 0 0-1.82 4.776-1.411 9.412C22.382 27.49 22 28.71 22 30c0 3.682 3.11 6.783 7.342 7.714C25.109 40.043 22 47.795 22 57c0 1.139.048 2.255.139 3.342A29.956 29.956 0 0 0 32 62c3.454 0 6.773-.584 9.861-1.658.091-1.087.139-2.203.139-3.342 0-9.205-3.11-16.957-7.342-19.286C38.891 36.783 42 33.682 42 30c0-1.498-.515-2.9-1.411-4.1.241-4.469-1.447-8.9-1.447-8.9-1.69 1.199-3.243 4.16-3.86 5.44Z"/><circle cx="54" cy="10" r="10" fill="#5EA7FF"/><path stroke="#FFF" stroke-linecap="square" stroke-width="2" d="m58.659 5.054-4.807 10.319-4.597-3.683"/></g></svg>